<svg width="173" height="115" viewBox="0 0 173 115" fill="none" xmlns="http://www.w3.org/2000/svg">
<path d="M34.8743 34.743H42.0907V48.0083H42.1968C43.0458 46.9471 44.107 46.0981 45.3805 45.6736C46.6539 45.2492 48.0335 44.9308 49.5192 44.9308C51.2172 44.9308 52.7029 45.2491 53.9764 45.992C55.2498 46.6287 56.4172 47.5838 57.2662 48.7512C58.2213 49.9185 58.858 51.192 59.3886 52.6777C59.9192 54.1634 60.1315 55.7553 60.1315 57.3471C60.1315 59.0451 59.8131 60.743 59.2825 62.1226C58.7519 63.6083 58.009 64.8818 56.9478 65.943C55.9927 67.0043 54.7192 67.8532 53.3396 68.3838C51.96 69.0206 50.3682 69.2328 48.6702 69.2328C47.8213 69.2328 47.0784 69.1267 46.3355 68.9145C45.5927 68.7022 44.956 68.3839 44.3192 68.0655C43.6825 67.7471 43.1519 67.3226 42.7274 66.8981C42.3029 66.4736 41.8784 66.0491 41.56 65.6247H41.4539V68.7022H34.8743V34.743ZM41.4539 57.0288C41.4539 58.7267 41.9845 60.2124 42.9396 61.2737C43.8947 62.3349 45.3805 62.8655 47.1845 62.8655C48.9886 62.8655 50.3682 62.3349 51.4294 61.2737C52.3845 60.2124 52.9151 58.7267 52.9151 57.0288C52.9151 55.2247 52.3845 53.8451 51.4294 52.7839C50.4743 51.7226 48.9886 51.192 47.1845 51.192C45.3805 51.192 44.0009 51.7226 42.9396 52.7839C41.9845 53.9512 41.4539 55.3308 41.4539 57.0288Z" fill="black"/>
<path d="M63.8457 38.1388C63.8457 36.9714 64.2702 36.0163 65.0131 35.1674C65.862 34.3184 66.8171 34 67.9845 34C69.1518 34 70.1069 34.4245 70.9559 35.1674C71.8049 36.0163 72.1233 36.9714 72.1233 38.1388C72.1233 39.3061 71.6988 40.2612 70.9559 41.1102C70.213 41.9592 69.1518 42.2775 67.9845 42.2775C66.8171 42.2775 65.862 41.8531 65.0131 41.1102C64.1641 40.2612 63.8457 39.3061 63.8457 38.1388ZM64.3763 45.4612H71.5926V68.7021H64.3763V45.4612Z" fill="black"/>
<path d="M101.095 66.6858C101.095 71.0368 100.034 74.4328 97.8049 76.6613C95.5764 78.8899 92.1804 80.0572 87.7233 80.0572C85.6008 80.0572 83.5845 79.845 81.5682 79.3144C79.5519 78.8899 77.7478 77.9348 76.0498 76.6613L79.9764 70.7185C81.1437 71.6736 82.3111 72.4164 83.4784 72.947C84.7519 73.4777 86.0253 73.796 87.5111 73.796C89.7396 73.796 91.3315 73.2654 92.3927 72.2042C93.4539 71.1429 93.9845 69.7634 93.9845 68.1715V65.943H93.8784C93.0294 67.1103 92.0743 67.8531 90.8009 68.2776C89.5274 68.7021 88.4662 69.0205 87.2988 69.0205C85.6009 69.0205 84.009 68.7021 82.6294 68.1715C81.2498 67.5348 79.9764 66.7919 79.0213 65.7307C78.0662 64.6695 77.2172 63.396 76.6866 61.9103C76.156 60.4246 75.8376 58.8327 75.8376 57.1348C75.8376 55.6491 76.0498 54.0572 76.5804 52.6776C77.1111 51.1919 77.7478 49.9185 78.7029 48.8572C79.658 47.6899 80.7192 46.8409 81.9927 46.2042C83.2662 45.5674 84.7519 45.1429 86.4498 45.1429C87.5111 45.1429 88.36 45.2491 89.209 45.4613C90.058 45.6735 90.8008 45.9919 91.4376 46.3103C92.0743 46.6287 92.7111 47.0532 93.1355 47.4777C93.56 47.9021 93.9845 48.3266 94.3029 48.7511H94.409V45.6736H100.989V66.6858H101.095ZM82.9478 56.9225C82.9478 57.6654 83.0539 58.4083 83.3723 59.045C83.6907 59.6817 84.1151 60.3184 84.5396 60.8491C85.0702 61.3797 85.707 61.8042 86.3437 62.1225C86.9804 62.4409 87.8294 62.547 88.5723 62.547C89.4213 62.547 90.1641 62.4409 90.8009 62.1225C91.5437 61.8042 92.0743 61.3797 92.6049 60.8491C93.1355 60.3184 93.56 59.6817 93.7723 59.045C94.0906 58.4083 94.1968 57.6654 94.1968 56.9225C94.1968 56.1797 94.0906 55.4368 93.7723 54.8001C93.4539 54.1634 93.0294 53.5266 92.6049 52.996C92.1804 52.4654 91.4376 52.0409 90.8009 51.7225C90.058 51.4042 89.3151 51.298 88.5723 51.298C87.7233 51.298 86.9804 51.4042 86.3437 51.7225C85.707 52.0409 85.0702 52.4654 84.5396 52.996C84.009 53.5266 83.5845 54.1634 83.3723 54.8001C83.16 55.4368 82.9478 56.1797 82.9478 56.9225Z" fill="black"/>
<path d="M107.674 34.849H118.817C121.576 34.849 124.123 35.1674 126.564 35.8041C129.005 36.4409 131.127 37.396 132.931 38.7755C134.736 40.1551 136.221 41.8531 137.282 44.0817C138.344 46.2041 138.874 48.8572 138.874 51.9347C138.874 54.6939 138.344 57.1347 137.282 59.1511C136.221 61.2735 134.842 62.9715 133.144 64.4572C131.34 65.8368 129.323 66.898 127.095 67.6409C124.76 68.3837 122.425 68.7021 119.878 68.7021H107.674V34.849ZM115.103 61.8041H118.923C120.621 61.8041 122.213 61.5919 123.699 61.2735C125.185 60.9552 126.458 60.3184 127.519 59.5756C128.58 58.7266 129.429 57.6654 130.066 56.3919C130.703 55.1184 131.021 53.4204 131.021 51.5102C131.021 49.8123 130.703 48.4327 130.066 47.1592C129.429 45.8857 128.58 44.9306 127.519 44.0817C126.458 43.2327 125.185 42.7021 123.805 42.2776C122.425 41.8531 120.94 41.6409 119.348 41.6409H115.103V61.8041Z" fill="black"/>
</svg>
