<svg width="99" height="99" viewBox="0 0 99 99" fill="none" xmlns="http://www.w3.org/2000/svg">
<path opacity="0.8" d="M87.399 48.84C87.6348 49.2484 87.6348 49.7516 87.399 50.16L69.0211 81.9914C68.7853 82.3998 68.3495 82.6514 67.8779 82.6514L31.1221 82.6514C30.6505 82.6514 30.2148 82.3998 29.979 81.9914L11.6011 50.16C11.3653 49.7516 11.3653 49.2484 11.6011 48.84L29.979 17.0085C30.2148 16.6001 30.6505 16.3485 31.1221 16.3485L67.8779 16.3485C68.3495 16.3485 68.7853 16.6001 69.0211 17.0085L87.399 48.84Z" fill="url(#paint0_linear_1194_6571)"/>
<path opacity="0.9" d="M78.159 48.8397C78.3948 49.2481 78.3948 49.7513 78.159 50.1597L64.4011 73.9891C64.1653 74.3975 63.7295 74.6491 63.2579 74.6491L35.7421 74.6491C35.2706 74.6491 34.8348 74.3975 34.599 73.9891L20.8411 50.1597C20.6053 49.7513 20.6053 49.2481 20.8411 48.8397L34.599 25.0103C34.8348 24.6019 35.2706 24.3503 35.7421 24.3503L63.2579 24.3503C63.7295 24.3503 64.1653 24.6019 64.4011 25.0103L78.159 48.8397Z" fill="url(#paint1_linear_1194_6571)"/>
<path d="M68.919 48.8397C69.1548 49.2481 69.1548 49.7513 68.919 50.1597L59.7811 65.987C59.5453 66.3954 59.1095 66.647 58.6379 66.647L40.3622 66.647C39.8906 66.647 39.4548 66.3954 39.219 65.987L30.0811 50.1597C29.8453 49.7513 29.8453 49.2481 30.0811 48.8397L39.219 33.0124C39.4548 32.604 39.8906 32.3524 40.3622 32.3524L58.638 32.3524C59.1095 32.3524 59.5453 32.604 59.7811 33.0124L68.919 48.8397Z" fill="url(#paint2_linear_1194_6571)"/>
<defs>
<linearGradient id="paint0_linear_1194_6571" x1="87.78" y1="49.5" x2="11.22" y2="49.5" gradientUnits="userSpaceOnUse">
<stop stop-color="#191919" stop-opacity="0.1"/>
<stop offset="1" stop-color="#191919"/>
</linearGradient>
<linearGradient id="paint1_linear_1194_6571" x1="78.54" y1="49.4997" x2="20.46" y2="49.4997" gradientUnits="userSpaceOnUse">
<stop stop-color="#191919" stop-opacity="0.1"/>
<stop offset="1" stop-color="#191919"/>
</linearGradient>
<linearGradient id="paint2_linear_1194_6571" x1="69.3001" y1="49.4997" x2="29.7001" y2="49.4997" gradientUnits="userSpaceOnUse">
<stop stop-color="#191919" stop-opacity="0.1"/>
<stop offset="1" stop-color="#191919"/>
</linearGradient>
</defs>
</svg>
