<svg width="99" height="99" viewBox="0 0 99 99" fill="none" xmlns="http://www.w3.org/2000/svg">
<path d="M61.0501 26.0703C68.3378 26.0703 74.8381 29.4955 79.0725 34.8456C81.2648 39.2611 82.5001 44.2361 82.5001 49.5003C82.5001 67.7257 67.7255 82.5003 49.5001 82.5003C37.594 82.5003 27.1617 76.1944 21.3579 66.7409C25.6396 70.9777 31.4925 73.5903 37.9501 73.5903C50.2737 73.5903 60.3988 64.08 61.5915 51.9109C61.746 51.1312 61.8287 50.3254 61.8287 49.5003C61.8287 42.6914 56.309 37.1717 49.5001 37.1717C44.8519 37.1717 40.8049 39.7442 38.7042 43.5429C41.3031 33.4859 50.3251 26.0703 61.0501 26.0703Z" fill="url(#paint0_linear_1194_6581)"/>
<path d="M49.5 16.5C61.4058 16.5 71.8376 22.8057 77.6415 32.2588C73.3599 28.0224 67.5073 25.41 61.05 25.41C48.7265 25.41 38.6009 34.9199 37.408 47.0888C37.2533 47.8686 37.1714 48.6748 37.1714 49.5C37.1714 56.3089 42.6911 61.8286 49.5 61.8286C54.1482 61.8286 58.1946 59.2556 60.2953 55.4568C57.6965 65.514 48.6751 72.93 37.95 72.93C30.6619 72.93 24.1613 69.5046 19.927 64.1541C17.7349 59.7387 16.5 54.7639 16.5 49.5C16.5 31.2746 31.2746 16.5 49.5 16.5Z" fill="url(#paint1_linear_1194_6581)"/>
<defs>
<linearGradient id="paint0_linear_1194_6581" x1="21.1201" y1="33.0003" x2="77.8801" y2="69.6303" gradientUnits="userSpaceOnUse">
<stop stop-color="#191919" stop-opacity="0.1"/>
<stop offset="1" stop-color="#191919"/>
</linearGradient>
<linearGradient id="paint1_linear_1194_6581" x1="77.88" y1="36.96" x2="16.5" y2="50.16" gradientUnits="userSpaceOnUse">
<stop stop-color="#191919" stop-opacity="0.1"/>
<stop offset="1" stop-color="#191919"/>
</linearGradient>
</defs>
</svg>
